Simulation
nRows=31
nColumns=15
endheader
time  TH_x TH_y TH_z SC_y  SC_z  SC_x  AC_y  AC_z  AC_x  GH_y  GH_z  GH_yy  EL_x  PS_y
5.382082397003745  0.000000  0.000000  0.000000  -31.39401497630643  7.574327371972164  11.025507080435194  53.00243391303571  19.200706802784705  5.928004004635368  4.1604914243187885  68.81362428115264  -4.99135809984889  13.448105090627374  120.000000
5.422247191011236  0.000000  0.000000  0.000000  -31.41743508161757  7.488813339322558  11.179196091240458  53.12996359356688  18.92821603895045  5.5914614787611185  4.2651328289825985  69.00829844958784  -5.235845909611481  13.470631761080162  120.000000
5.4624119850187265  0.000000  0.000000  0.000000  -31.34260640769751  7.387443080332655  11.132230308968845  53.269324342344866  18.627916918074977  5.235263962018464  4.387694674062678  69.01017868748008  -5.364375379963582  13.412652944229546  120.000000
5.502576779026217  0.000000  0.000000  0.000000  -31.173598422490368  7.268041606011726  10.874653501272837  53.42411469043551  18.293975839359575  4.866503851582175  4.528552947759652  68.80173510586269  -5.382462955529067  13.289960768219219  120.000000
5.542741573033708  0.000000  0.000000  0.000000  -30.9169570805791  7.126690577061118  10.401010405017802  53.596168630573565  17.920577053034187  4.496406127864841  4.686662343324833  68.36576081473612  -5.2984920086413085  13.124664806256234  120.000000
5.582906367041199  0.000000  0.000000  0.000000  -30.581789911966162  6.957926503600238  9.711328055388536  53.78411033785013  17.50326209514581  4.1399552639533725  4.86017122886093  67.68719154920005  -5.121225964297259  12.941176291706423  120.000000
5.623071161048689  0.000000  0.000000  0.000000  -30.17991470042975  6.755626836949638  8.8120368469533  53.98261785515861  17.040306717013824  3.814896197760354  5.046858279036283  66.75496249904015  -4.8573519634161935  12.761980929200428  120.000000
5.66323595505618  0.000000  0.000000  0.000000  -29.72553914941988  6.51429904013038  7.716642747446906  54.18284296962589  16.533846956284133  3.5401259649675794  5.2443123976721155  65.5634142713857  -4.509642461063429  12.604216151734908  120.000000
5.70340074906367  0.000000  0.000000  0.000000  -29.23430836645469  6.230560439918607  6.445828718076156  54.373716102645886  15.990343580195933  3.3337211094589856  5.450010243537609  64.11258025487321  -4.076194747618495  12.477776154110058  120.000000
5.743565543071161  0.000000  0.000000  0.000000  -28.72209095746007  5.904279725175811  5.026729604722135  54.543873724069414  15.420151922413341  3.2107718871661994  5.661110303776984  62.407475417751066  -3.5508121730755478  12.38522653900576  120.000000
5.7837303370786515  0.000000  0.000000  0.000000  -28.20337883015683  5.539151332269835  3.4918588403433337  54.68337943794844  14.836394717786156  3.1818916738708674  5.874394957911157  60.45671061092799  -2.9242911090935295  12.323131732555705  120.000000
5.823895131086142  0.000000  0.000000  0.000000  -27.689319254662045  5.1429511064519495  1.8775918944152548  54.7857328197425  14.253733294802117  3.2520489741644214  6.0865160598052315  58.271249611897744  -2.1861153576741907  12.284177647048443  120.000000
5.864059925093633  0.000000  0.000000  0.000000  -27.186492493984602  4.727367210540458  0.22247195391526703  54.84909975949086  13.687036330894776  3.4202043653585936  6.294372972527075  55.863381195851645  -1.3263992269388591  12.259382434080612  120.000000
5.904224719101124  0.000000  0.000000  0.000000  -26.69691308496261  4.3068630165920965  -1.434610264267789  54.87576793554183  13.150420748809474  3.6796783256819396  6.494481782008806  53.24616830187609  -0.33682584071393457  12.239902689014633  120.000000
5.944389513108614  0.000000  0.000000  0.000000  -26.219722391006904  3.897692264022374  -3.055751258634568  54.871015580044464  12.656166609707947  4.0189230335568356  6.682370612717154  50.433841819360396  0.7888210463932831  12.218263963844525  120.000000
5.984554307116105  0.000000  0.000000  0.000000  -25.753123750571703  3.5170479213667636  -4.605247164194935  54.841508189217976  12.21479893268814  4.4228614271828555  6.851816094186611  47.44328706245893  2.05501108630031  12.188911879404902  120.000000
6.024719101123596  0.000000  0.000000  0.000000  -25.2963545987618  3.182672575027527  -6.050185416567842  54.79391618840882  11.835436212872164  4.873922873936632  6.994096636033442  44.296353940931596  3.4651384315576963  12.148898465319077  120.000000
6.064883895131086  0.000000  0.000000  0.000000  -24.850913782743117  2.9122223565088063  -7.3610935820035746  54.735308677672734  11.525781596976273  5.353681308478749  7.09949980325361  41.02182414298438  5.021260909701856  12.098432209348005  120.000000
6.1050486891385765  0.000000  0.000000  0.000000  -24.419728877605  2.7207419619458477  -8.51228730621686  54.67384493221176  11.291599289584637  5.8443872718610494  7.160521253552369  37.65590540283889  6.722379382502323  12.042066934574681  120.000000
6.145213483146067  0.000000  0.000000  0.000000  -24.00938405470352  2.618871327053946  -9.483249123222759  54.617937147724746  11.136548229779436  6.332071166491313  7.172973421432524  34.24109724470426  8.564248578177695  11.988741766386923  120.000000
6.185378277153558  0.000000  0.000000  0.000000  -23.63071726335877  2.612447594529641  -10.26122200054434  54.5751038584217  11.062205586291771  6.805436220076577  7.134448379067972  30.82413027582827  10.540676674114481  11.949951236270048  120.000000
6.225543071161049  0.000000  0.000000  0.000000  -23.29673496757281  2.701816472834845  -10.840299585880661  54.55322461340449  11.065573872226924  7.253067576557018  7.043145191907984  27.450661153276904  12.644683358907516  11.938635166237574  120.000000
6.265707865168539  0.000000  0.000000  0.000000  -23.020046331614342  2.8807152309894093  -11.221933826420027  54.56099318544117  11.139017546518403  7.665206652539191  6.89833309548564  24.159844172923815  14.868487660769913  11.968474717562144  120.000000
6.30587265917603  0.000000  0.000000  0.000000  -22.809760195387124  3.1357437222397087  -11.413881833180849  54.60605979895362  11.272016685565491  8.034755055414184  6.698823341315915  20.981738295696694  17.20454397955128  12.052858153900587  120.000000
6.346037453183521  0.000000  0.000000  0.000000  -22.6707452521445  3.4483419762679084  -11.427473002962255  54.69407495323248  11.452341830486281  8.357789077347329  6.441041808723727  17.937872059341657  19.64682101169638  12.203558217250272  120.000000
6.386202247191012  0.000000  0.000000  0.000000  -22.602654466568975  3.79828315084481  -11.277016487045955  54.829234438932346  11.667931190710043  8.633032544623905  6.119389603074349  15.042881940962985  22.189579744591473  12.429880027860742  120.000000
6.426367041198501  0.000000  0.000000  0.000000  -22.601146147716367  4.16487730688938  -10.97902916910634  55.01407250600933  11.907441286791945  8.860547195576142  5.723341983483042  12.306041889783662  24.828942587751907  12.737108980739205  120.000000
6.466531835205992  0.000000  0.000000  0.000000  -22.659590476916158  4.528031786460147  -10.551550676819396  55.24486864242835  12.160184314893796  9.043032663198652  5.217521419434376  9.731551874274219  27.58144061011732  13.124299587318218  120.000000
6.506696629213483  0.000000  0.000000  0.000000  -22.770331957651738  4.871085793758216  -10.013989819534519  55.51169513988119  12.417119862194582  9.184170699579662  4.5020689291466836  7.320182284132355  30.522953627742922  13.583370902538482  120.000000
6.546861423220974  0.000000  0.000000  0.000000  -22.92422717308822  5.183047117655594  -9.388497325722161  55.80531472046684  12.670890934747105  9.283351750527272  3.3216519998356406  5.071643329092514  33.87889295396331  14.098445131068488  120.000000
6.587026217228464  0.000000  0.000000  0.000000  -23.11197046477204  5.457954944332346  -8.6995889115476  56.114962346882265  12.91355280934815  9.338329128461458  0.7462502896966844  2.98494203097291  38.54576291574617  14.646483739876318  120.000000
